<mxfile host="app.diagrams.net" modified="2021-03-22T22:04:12.646Z" agent="5.0 (X11; Linux x86_64) AppleWebKit/537.36 (KHTML, like Gecko) Chrome/89.0.4389.90 Safari/537.36" etag="t2ouu-IwL1eTTDmk3q0J" version="14.5.0" type="github">
  <diagram id="4eQrYxI1_19HMyqTlLBh" name="Page-1">
    <mxGraphModel dx="1422" dy="833" grid="1" gridSize="10" guides="1" tooltips="1" connect="1" arrows="1" fold="1" page="1" pageScale="1" pageWidth="827" pageHeight="1169" math="0" shadow="0">
      <root>
        <mxCell id="0" />
        <mxCell id="1" parent="0" />
        <mxCell id="ytJmNbuZFJul1hcaA43l-3" value="&lt;sup&gt;&lt;font style=&quot;font-size: 18px&quot;&gt;g(x , y , z)&lt;/font&gt;&lt;/sup&gt;" style="rounded=0;whiteSpace=wrap;html=1;" vertex="1" parent="1">
          <mxGeometry x="282" y="330" width="146" height="60" as="geometry" />
        </mxCell>
        <mxCell id="ytJmNbuZFJul1hcaA43l-4" value="&lt;font style=&quot;font-size: 14px&quot;&gt;Degradation Function&lt;/font&gt;" style="text;html=1;strokeColor=none;fillColor=none;align=center;verticalAlign=middle;whiteSpace=wrap;rounded=0;" vertex="1" parent="1">
          <mxGeometry x="282" y="410" width="146" height="20" as="geometry" />
        </mxCell>
        <mxCell id="ytJmNbuZFJul1hcaA43l-5" value="&lt;sup&gt;&lt;font style=&quot;font-size: 18px&quot;&gt;f(x , y , z)&lt;/font&gt;&lt;/sup&gt;" style="rounded=0;whiteSpace=wrap;html=1;" vertex="1" parent="1">
          <mxGeometry x="15" y="330" width="146" height="60" as="geometry" />
        </mxCell>
        <mxCell id="ytJmNbuZFJul1hcaA43l-9" value="&lt;span style=&quot;font-size: 14px&quot;&gt;Original Image&lt;/span&gt;" style="text;html=1;strokeColor=none;fillColor=none;align=center;verticalAlign=middle;whiteSpace=wrap;rounded=0;" vertex="1" parent="1">
          <mxGeometry x="15" y="410" width="146" height="20" as="geometry" />
        </mxCell>
        <mxCell id="ytJmNbuZFJul1hcaA43l-10" value="" style="shape=flexArrow;endArrow=classic;html=1;entryX=0;entryY=0.5;entryDx=0;entryDy=0;exitX=1;exitY=0.5;exitDx=0;exitDy=0;" edge="1" parent="1" source="ytJmNbuZFJul1hcaA43l-5" target="ytJmNbuZFJul1hcaA43l-3">
          <mxGeometry width="50" height="50" relative="1" as="geometry">
            <mxPoint x="218" y="320" as="sourcePoint" />
            <mxPoint x="268" y="270" as="targetPoint" />
          </mxGeometry>
        </mxCell>
        <mxCell id="ytJmNbuZFJul1hcaA43l-11" value="&lt;font style=&quot;font-size: 18px&quot;&gt;u&lt;/font&gt;" style="ellipse;whiteSpace=wrap;html=1;aspect=fixed;" vertex="1" parent="1">
          <mxGeometry x="518" y="320" width="80" height="80" as="geometry" />
        </mxCell>
        <mxCell id="ytJmNbuZFJul1hcaA43l-12" value="" style="shape=flexArrow;endArrow=classic;html=1;entryX=0.5;entryY=1;entryDx=0;entryDy=0;" edge="1" parent="1" target="ytJmNbuZFJul1hcaA43l-11">
          <mxGeometry width="50" height="50" relative="1" as="geometry">
            <mxPoint x="558" y="450" as="sourcePoint" />
            <mxPoint x="609" y="450" as="targetPoint" />
          </mxGeometry>
        </mxCell>
        <mxCell id="ytJmNbuZFJul1hcaA43l-13" value="&lt;font style=&quot;font-size: 14px&quot;&gt;b(x , y , z)&lt;br&gt;Blur&lt;br&gt;&lt;/font&gt;" style="text;html=1;strokeColor=none;fillColor=none;align=center;verticalAlign=middle;whiteSpace=wrap;rounded=0;" vertex="1" parent="1">
          <mxGeometry x="485" y="460" width="146" height="20" as="geometry" />
        </mxCell>
        <mxCell id="ytJmNbuZFJul1hcaA43l-14" value="" style="shape=flexArrow;endArrow=classic;html=1;entryX=0;entryY=0.5;entryDx=0;entryDy=0;exitX=1;exitY=0.5;exitDx=0;exitDy=0;" edge="1" parent="1" source="ytJmNbuZFJul1hcaA43l-3" target="ytJmNbuZFJul1hcaA43l-11">
          <mxGeometry width="50" height="50" relative="1" as="geometry">
            <mxPoint x="425" y="260" as="sourcePoint" />
            <mxPoint x="546" y="260" as="targetPoint" />
          </mxGeometry>
        </mxCell>
        <mxCell id="ytJmNbuZFJul1hcaA43l-15" value="&lt;font style=&quot;font-size: 14px&quot;&gt;d(x , y , z)&lt;br&gt;Degraded Image&lt;br&gt;&lt;/font&gt;" style="text;html=1;strokeColor=none;fillColor=none;align=center;verticalAlign=middle;whiteSpace=wrap;rounded=0;" vertex="1" parent="1">
          <mxGeometry x="666" y="350" width="146" height="20" as="geometry" />
        </mxCell>
        <mxCell id="ytJmNbuZFJul1hcaA43l-16" value="" style="shape=flexArrow;endArrow=classic;html=1;entryX=0;entryY=0.5;entryDx=0;entryDy=0;exitX=1;exitY=0.5;exitDx=0;exitDy=0;" edge="1" parent="1" source="ytJmNbuZFJul1hcaA43l-11" target="ytJmNbuZFJul1hcaA43l-15">
          <mxGeometry width="50" height="50" relative="1" as="geometry">
            <mxPoint x="568" y="460" as="sourcePoint" />
            <mxPoint x="568" y="410" as="targetPoint" />
          </mxGeometry>
        </mxCell>
      </root>
    </mxGraphModel>
  </diagram>
</mxfile>
